<?xml version="1.0" encoding="UTF-8" standalone="no"?>
<svg
   xmlns:dc="http://purl.org/dc/elements/1.1/"
   xmlns:cc="http://creativecommons.org/ns#"
   xmlns:rdf="http://www.w3.org/1999/02/22-rdf-syntax-ns#"
   xmlns:svg="http://www.w3.org/2000/svg"
   xmlns="http://www.w3.org/2000/svg"
   xmlns:sodipodi="http://sodipodi.sourceforge.net/DTD/sodipodi-0.dtd"
   xmlns:inkscape="http://www.inkscape.org/namespaces/inkscape"
   id="Nederlands_verkeersbord_J37"
   width="1000.3998"
   height="1000.3998"
   viewBox="0 0 1000.3998 1000.3998"
   version="1.1"
   inkscape:version="0.48.4 r9939"
   sodipodi:docname="AJAX.svg">
  <metadata
     id="metadata10">
    <rdf:RDF>
      <cc:Work
         rdf:about="">
        <dc:format>image/svg+xml</dc:format>
        <dc:type
           rdf:resource="http://purl.org/dc/dcmitype/StillImage" />
      </cc:Work>
    </rdf:RDF>
  </metadata>
  <defs
     id="defs8" />
  <sodipodi:namedview
     pagecolor="#ffffff"
     bordercolor="#666666"
     borderopacity="1"
     objecttolerance="10"
     gridtolerance="10"
     guidetolerance="10"
     inkscape:pageopacity="0"
     inkscape:pageshadow="2"
     inkscape:window-width="1280"
     inkscape:window-height="1001"
     id="namedview6"
     showgrid="false"
     inkscape:zoom="0.5"
     inkscape:cx="511.87607"
     inkscape:cy="370.1168"
     inkscape:window-x="-8"
     inkscape:window-y="-8"
     inkscape:window-maximized="1"
     inkscape:current-layer="Nederlands_verkeersbord_J37"
     fit-margin-top="0.2"
     fit-margin-left="0.2"
     fit-margin-right="0.2"
     fit-margin-bottom="0.2" />
  <path
     inkscape:connector-curvature="0"
     id="path3124-1"
     d="M 0.2,500.20012 C 0.20003,224.05752 224.05737,0.2 500.19997,0.2 c 276.1421,0 499.99983,223.85752 499.99983,500.00012 0,276.1421 -223.85773,499.99968 -499.99983,499.99968 C 224.05737,1000.1998 0.19998,776.34222 0.2,500.20012 z"
     style="fill:#c80f1e;fill-opacity:1;stroke:none"
     sodipodi:nodetypes="sssss" />
  <path
     sodipodi:nodetypes="sssss"
     style="fill:#ffd224;fill-opacity:1;stroke:none"
     d="m 500.19967,902.07472 c 221.9495,0 401.8751,-179.9255 401.8751,-401.875 0,-221.9492 -179.9256,-401.87507 -401.8751,-401.87507 -221.9492,0 -401.87491,179.92587 -401.87491,401.87507 0,221.9495 179.92571,401.875 401.87491,401.875 z"
     id="path3977"
     inkscape:connector-curvature="0" />
  <path
     style="fill:#000000;fill-opacity:1;fill-rule:nonzero;stroke:none"
     d="M 500.19993,140.20041 292.3871,413.07543 c -9.1916,12.0276 -5.6763,28.51 7.8438,36.6875 9.0419,5.4514 18.4016,4.4849 29.5,1.9687 l 107.15653,-26.1875 0,434.65569 126.625,0 0,-434.65569 107.1563,26.1875 c 11.0983,2.5162 20.458,3.4827 29.5,-1.9687 13.5201,-8.1775 17.0353,-24.6599 7.8437,-36.6875 z"
     id="path6550"
     inkscape:connector-curvature="0"
     sodipodi:nodetypes="cccccccccccc" />
  <path
     sodipodi:nodetypes="ccccc"
     inkscape:connector-curvature="0"
     id="path5918"
     d="M 826.03257,855.21242 919.40977,737.82122 174.36687,145.18741 80.98965,262.57852 z"
     style="opacity:0.98999999;fill:#c80f1e;fill-opacity:1;stroke:none" />
</svg>
