<svg xmlns="http://www.w3.org/2000/svg" version="1.1" xmlns:xlink="http://www.w3.org/1999/xlink" viewBox="0 0 8.630293453571733 7.922118170839209"><g transform="matrix(1,0,0,1,0.6889260236608665,6.067176522178342)"><g clip-path="url(#SvgjsClipPath1001)"><g clip-path="url(#SvgjsClipPath100059a29ebd-c92f-4298-9d9e-b8c2217132f0)"><path d=" M 1.6511171717551791 -5.0013240868764415 L 0.3825162046844185 -3.7326205547957105 L 0.3825162046844185 -1.938553400394357 L 1.6511171717551791 -0.6699524333235969 L 3.4451843261565327 -0.6699524333235969 L 4.713785293227293 -1.938553400394357 L 4.713785293227293 -3.7326205547957105 L 3.4451843261565327 -5.0013240868764415 Z M 3.485774428852299 -5.0993249539031105 L 1.6105270690594133 -5.0993249539031105 L 0.2846179026677199 -3.773108092481506 L 0.2846179026677199 -1.897963297698591 L 1.6105270690594133 -0.5719515662969279 L 3.485774428852299 -0.5719515662969279 L 4.811786160253963 -1.897963297698591 L 4.811786160253963 -3.773108092481506 Z" fill="url(#gradient-9d0fc320-bcbe-4781-8900-263a5e58def8_0)" transform="matrix(1,0,0,1,0,0)" fill-rule="evenodd"></path></g><g clip-path="url(#SvgjsClipPath100059a29ebd-c92f-4298-9d9e-b8c2217132f0)"><path d=" M 1.7448615908680787 -4.753398816525614 L 0.6089541054464579 -3.6174913311039933 L 0.6089541054464579 -2.0109386561809304 L 1.7448615908680787 -0.8750311707593093 L 3.3513117007811704 -0.8750311707593093 L 4.4872191862027915 -2.0109386561809304 L 4.4872191862027915 -3.617388766094023 L 3.3513117007811704 -4.753296251515644 Z M 3.3920043684869072 -4.851399683552283 L 1.7042714881723127 -4.851399683552283 L 0.5108763146623109 -3.657978868789789 L 0.5108763146623109 -1.9702459884751948 L 1.704271488172313 -0.7768251737126999 L 3.3920043684869072 -0.7768251737126999 L 4.585425183249402 -1.9702459884751948 L 4.585425183249402 -3.657978868789789 Z" fill="url(#gradient-9d0fc320-bcbe-4781-8900-263a5e58def8_1)" transform="matrix(1,0,0,1,0,0)" fill-rule="evenodd"></path></g><g clip-path="url(#SvgjsClipPath100059a29ebd-c92f-4298-9d9e-b8c2217132f0)"><path d=" M 4.2632684869325335 -4.529242987235415 L 0.8330586522316713 -4.529242987235415 L 0.8330586522316713 -1.0990331525345534 L 4.2632684869325335 -1.0990331525345534 Z M 0.7350321439525098 -4.627243854262084 L 0.7350321439525098 -1.0010066442553915 L 4.3612693539592025 -1.0010066442553915 L 4.3612693539592025 -4.627243854262084 Z" fill="url(#gradient-9d0fc320-bcbe-4781-8900-263a5e58def8_2)" transform="matrix(1,0,0,1,0,0)" fill-rule="evenodd"></path></g><g clip-path="url(#SvgjsClipPath100059a29ebd-c92f-4298-9d9e-b8c2217132f0)"><path d=" M 4.989787735057504 -2.8141252492587383 L 2.564125249258738 -5.239659528795041 L 0.13859096972243456 -2.8141252492587383 L 2.564125249258738 -0.38846276345997177 Z M 2.564125249258738 -5.378250498517476 L 0 -2.8141252492587383 L 2.564125249258738 -0.25000000000000044 L 5.128250498517476 -2.8141252492587383 Z" fill="url(#gradient-9d0fc320-bcbe-4781-8900-263a5e58def8_3)" transform="matrix(1,0,0,1,0,0)" fill-rule="evenodd"></path></g><path d=" M 2.3331775340180467 -2.445638375689767 L 2.5573262313042413 -3.3999684353476547 L 2.7203434656942007 -2.6528061110603405 M 3.355431441338418 -1.9497942877536398 C 3.318073325124052 -2.0856419830786064 2.9003416619997813 -3.7531724431925673 2.9003416619997813 -3.8584544070694156 C 2.9003416619997813 -3.922982062348775 2.9886426639610093 -3.994302102394382 2.9886426639610093 -4.035056410991872 C 2.9886426639610093 -4.072414527206238 2.961473124896016 -4.096187873888106 2.913926431532278 -4.096187873888106 L 2.2109146082255773 -4.096187873888106 C 2.163367914861839 -4.096187873888106 2.136198375796846 -4.072414527206238 2.136198375796846 -4.035056410991872 C 2.136198375796846 -3.994302102394382 2.224499377758074 -3.922982062348775 2.224499377758074 -3.8584544070694156 C 2.224499377758074 -3.7531724431925673 1.7626172136531888 -1.9396057106042672 1.7354476745881955 -1.834323746727419 C 1.7048819431400781 -1.715457013318073 1.572430440198236 -1.6475331656555898 1.572430440198236 -1.5931940875256037 C 1.572430440198236 -1.5558359713112377 1.5995999792632292 -1.532062624629369 1.6471466726269675 -1.532062624629369 L 2.2516689168230672 -1.532062624629369 C 2.306007994953054 -1.532062624629369 2.3297813416349227 -1.5592321636943622 2.3297813416349227 -1.5931940875256037 C 2.3297813416349227 -1.6475331656555898 2.2075184158424532 -1.6916836666362043 2.2075184158424532 -1.8241351695780463 L 2.2075184158424532 -1.9158323639223984 L 2.8222292371879254 -2.248659217468566 C 2.8222292371879254 -2.248659217468566 2.9343035858310227 -1.7901732457468045 2.9343035858310227 -1.7663998990649357 C 2.9343035858310227 -1.6848912818699562 2.8460025838697947 -1.6475331656555898 2.8460025838697947 -1.5931940875256037 C 2.8460025838697947 -1.5592321636943622 2.869775930551664 -1.532062624629369 2.9241150086816505 -1.532062624629369 L 3.481090559514012 -1.532062624629369 C 3.5286372528777497 -1.532062624629369 3.555806791942743 -1.5558359713112377 3.555806791942743 -1.5931940875256037 C 3.555806791942743 -1.6475331656555898 3.4097705194684047 -1.7426265523830664 3.355431441338418 -1.9497942877536398" fill="url(#gradient-4a37ab86-a355-4b62-95a7-b472873d0770)" transform="matrix(1,0,0,1,0,0)" fill-rule="nonzero"></path></g><g><path d=" M 0.654052734375 0.942626953125 L 0.7646484375 0.942626953125 L 0.71484375 0.782958984375 L 0.37353515625 0.782958984375 L 0.32373046875 0.942626953125 L 0.44091796875 0.942626953125 L 0.44091796875 1.143310546875 L 0.019775390625 1.143310546875 L 0.019775390625 0.942626953125 L 0.1025390625 0.942626953125 L 0.405029296875 0.032958984375 L 0.69873046875 0.032958984375 L 0.99462890625 0.942626953125 L 1.0751953125 0.942626953125 L 1.0751953125 1.143310546875 L 0.654052734375 1.143310546875 L 0.654052734375 0.942626953125 M 0.431396484375 0.595458984375 L 0.655517578125 0.595458984375 L 0.542724609375 0.234375 L 0.431396484375 0.595458984375 M 1.7080078125 0.345703125 Q 1.704345703125 0.320068359375 1.6900634765625 0.29736328125 Q 1.67578125 0.274658203125 1.6534423828125 0.2581787109375 Q 1.631103515625 0.24169921875 1.6029052734375 0.232177734375 Q 1.57470703125 0.22265625 1.5439453125 0.22265625 Q 1.51611328125 0.22265625 1.491943359375 0.228515625 Q 1.4677734375 0.234375 1.4498291015625 0.2464599609375 Q 1.431884765625 0.258544921875 1.4212646484375 0.277587890625 Q 1.41064453125 0.296630859375 1.41064453125 0.322998046875 Q 1.41064453125 0.35595703125 1.4249267578125 0.3753662109375 Q 1.439208984375 0.394775390625 1.4615478515625 0.4072265625 Q 1.48388671875 0.419677734375 1.510986328125 0.427001953125 Q 1.5380859375 0.434326171875 1.563720703125 0.443115234375 L 1.76513671875 0.510498046875 Q 1.806884765625 0.525146484375 1.843505859375 0.55078125 Q 1.880126953125 0.576416015625 1.9068603515625 0.613037109375 Q 1.93359375 0.649658203125 1.948974609375 0.697265625 Q 1.96435546875 0.744873046875 1.96435546875 0.80419921875 Q 1.96435546875 0.884765625 1.9346923828125 0.951416015625 Q 1.905029296875 1.01806640625 1.8515625 1.065673828125 Q 1.798095703125 1.11328125 1.723388671875 1.1396484375 Q 1.648681640625 1.166015625 1.557861328125 1.166015625 Q 1.494140625 1.166015625 1.4373779296875 1.1517333984375 Q 1.380615234375 1.137451171875 1.333740234375 1.1103515625 Q 1.286865234375 1.083251953125 1.251708984375 1.0455322265625 Q 1.216552734375 1.0078125 1.19677734375 0.960205078125 L 1.121337890625 0.960205078125 L 1.121337890625 0.73974609375 L 1.386474609375 0.73974609375 L 1.386474609375 0.78515625 Q 1.386474609375 0.818115234375 1.3970947265625 0.845947265625 Q 1.40771484375 0.873779296875 1.428955078125 0.894287109375 Q 1.4501953125 0.914794921875 1.482421875 0.9261474609375 Q 1.5146484375 0.9375 1.557861328125 0.9375 Q 1.623779296875 0.9375 1.658203125 0.9071044921875 Q 1.692626953125 0.876708984375 1.692626953125 0.822509765625 Q 1.692626953125 0.794677734375 1.6805419921875 0.7760009765625 Q 1.66845703125 0.75732421875 1.6494140625 0.7445068359375 Q 1.63037109375 0.731689453125 1.60693359375 0.722900390625 Q 1.58349609375 0.714111328125 1.560791015625 0.706787109375 L 1.39306640625 0.652587890625 Q 1.345458984375 0.637939453125 1.3011474609375 0.611572265625 Q 1.2568359375 0.585205078125 1.2227783203125 0.545654296875 Q 1.188720703125 0.506103515625 1.1685791015625 0.4530029296875 Q 1.1484375 0.39990234375 1.1484375 0.331787109375 Q 1.1484375 0.252685546875 1.177734375 0.1907958984375 Q 1.20703125 0.12890625 1.259765625 0.08642578125 Q 1.3125 0.0439453125 1.385009765625 0.02197265625 Q 1.45751953125 0 1.5439453125 0 Q 1.612060546875 0 1.669921875 0.0157470703125 Q 1.727783203125 0.031494140625 1.7735595703125 0.057861328125 Q 1.8193359375 0.084228515625 1.8511962890625 0.1182861328125 Q 1.883056640625 0.15234375 1.89990234375 0.18896484375 L 1.97314453125 0.18896484375 L 1.97314453125 0.41015625 L 1.7080078125 0.41015625 L 1.7080078125 0.345703125 M 2.587646484375 1.1630859375 Q 2.51220703125 1.1630859375 2.443359375 1.142578125 Q 2.37451171875 1.1220703125 2.3148193359375 1.084716796875 Q 2.255126953125 1.04736328125 2.2064208984375 0.9949951171875 Q 2.15771484375 0.942626953125 2.123291015625 0.8785400390625 Q 2.0888671875 0.814453125 2.06982421875 0.7412109375 Q 2.05078125 0.66796875 2.05078125 0.588134765625 Q 2.05078125 0.50830078125 2.06982421875 0.4346923828125 Q 2.0888671875 0.361083984375 2.123291015625 0.2969970703125 Q 2.15771484375 0.23291015625 2.2064208984375 0.1805419921875 Q 2.255126953125 0.128173828125 2.3148193359375 0.0908203125 Q 2.37451171875 0.053466796875 2.443359375 0.032958984375 Q 2.51220703125 0.012451171875 2.587646484375 0.012451171875 Q 2.6630859375 0.012451171875 2.7322998046875 0.032958984375 Q 2.801513671875 0.053466796875 2.8612060546875 0.0908203125 Q 2.9208984375 0.128173828125 2.9696044921875 0.1805419921875 Q 3.018310546875 0.23291015625 3.0531005859375 0.2969970703125 Q 3.087890625 0.361083984375 3.10693359375 0.4346923828125 Q 3.1259765625 0.50830078125 3.1259765625 0.588134765625 Q 3.1259765625 0.667236328125 3.10693359375 0.7408447265625 Q 3.087890625 0.814453125 3.0531005859375 0.8785400390625 Q 3.018310546875 0.942626953125 2.9696044921875 0.9949951171875 Q 2.9208984375 1.04736328125 2.8612060546875 1.084716796875 Q 2.801513671875 1.1220703125 2.7322998046875 1.142578125 Q 2.6630859375 1.1630859375 2.587646484375 1.1630859375 M 2.587646484375 0.93310546875 Q 2.6513671875 0.93310546875 2.7044677734375 0.9056396484375 Q 2.757568359375 0.878173828125 2.795654296875 0.8309326171875 Q 2.833740234375 0.78369140625 2.8546142578125 0.7210693359375 Q 2.87548828125 0.658447265625 2.87548828125 0.588134765625 Q 2.87548828125 0.51708984375 2.854248046875 0.4541015625 Q 2.8330078125 0.39111328125 2.7945556640625 0.3438720703125 Q 2.756103515625 0.296630859375 2.703369140625 0.2691650390625 Q 2.650634765625 0.24169921875 2.587646484375 0.24169921875 Q 2.524658203125 0.24169921875 2.471923828125 0.2691650390625 Q 2.419189453125 0.296630859375 2.381103515625 0.3438720703125 Q 2.343017578125 0.39111328125 2.3214111328125 0.4541015625 Q 2.2998046875 0.51708984375 2.2998046875 0.588134765625 Q 2.2998046875 0.658447265625 2.3214111328125 0.7210693359375 Q 2.343017578125 0.78369140625 2.381103515625 0.8309326171875 Q 2.419189453125 0.878173828125 2.471923828125 0.9056396484375 Q 2.524658203125 0.93310546875 2.587646484375 0.93310546875 M 3.27099609375 0.032958984375 L 3.78369140625 0.032958984375 Q 3.869384765625 0.032958984375 3.941162109375 0.0596923828125 Q 4.012939453125 0.08642578125 4.06494140625 0.1318359375 Q 4.116943359375 0.17724609375 4.146240234375 0.236572265625 Q 4.175537109375 0.2958984375 4.175537109375 0.3603515625 Q 4.175537109375 0.43798828125 4.1524658203125 0.5057373046875 Q 4.12939453125 0.573486328125 4.0810546875 0.623291015625 Q 4.03271484375 0.673095703125 3.958740234375 0.7020263671875 Q 3.884765625 0.73095703125 3.78369140625 0.73095703125 L 3.629150390625 0.73095703125 L 3.629150390625 0.942626953125 L 3.73095703125 0.942626953125 L 3.73095703125 1.143310546875 L 3.27099609375 1.143310546875 L 3.27099609375 0.942626953125 L 3.385986328125 0.942626953125 L 3.385986328125 0.234375 L 3.27099609375 0.234375 L 3.27099609375 0.032958984375 M 3.629150390625 0.234375 L 3.629150390625 0.532470703125 L 3.7294921875 0.532470703125 Q 3.81298828125 0.532470703125 3.862060546875 0.497314453125 Q 3.9111328125 0.462158203125 3.9111328125 0.385986328125 Q 3.9111328125 0.31494140625 3.864990234375 0.274658203125 Q 3.81884765625 0.234375 3.7294921875 0.234375 L 3.629150390625 0.234375 M 4.295654296875 0.032958984375 L 4.77099609375 0.032958984375 L 4.77099609375 0.234375 L 4.65380859375 0.234375 L 4.65380859375 0.942626953125 L 4.8955078125 0.942626953125 Q 4.905029296875 0.942626953125 4.9141845703125 0.9371337890625 Q 4.92333984375 0.931640625 4.9302978515625 0.9228515625 Q 4.937255859375 0.9140625 4.941650390625 0.90380859375 Q 4.946044921875 0.8935546875 4.946044921875 0.884033203125 L 4.946044921875 0.7353515625 L 5.183349609375 0.7353515625 L 5.183349609375 1.143310546875 L 4.295654296875 1.143310546875 L 4.295654296875 0.942626953125 L 4.41064453125 0.942626953125 L 4.41064453125 0.234375 L 4.295654296875 0.234375 L 4.295654296875 0.032958984375 M 5.2353515625 0.032958984375 L 5.6806640625 0.032958984375 L 5.6806640625 0.234375 L 5.578857421875 0.234375 L 5.578857421875 0.695068359375 Q 5.578857421875 0.758056640625 5.5931396484375 0.802001953125 Q 5.607421875 0.845947265625 5.633056640625 0.873779296875 Q 5.65869140625 0.901611328125 5.69384765625 0.9144287109375 Q 5.72900390625 0.92724609375 5.770751953125 0.92724609375 Q 5.81396484375 0.92724609375 5.8494873046875 0.916259765625 Q 5.885009765625 0.9052734375 5.9102783203125 0.8785400390625 Q 5.935546875 0.851806640625 5.9490966796875 0.80712890625 Q 5.962646484375 0.762451171875 5.962646484375 0.695068359375 L 5.962646484375 0.234375 L 5.8447265625 0.234375 L 5.8447265625 0.032958984375 L 6.2900390625 0.032958984375 L 6.2900390625 0.234375 L 6.201416015625 0.234375 L 6.201416015625 0.66650390625 Q 6.201416015625 0.78369140625 6.167724609375 0.8748779296875 Q 6.134033203125 0.966064453125 6.0750732421875 1.029052734375 Q 6.01611328125 1.092041015625 5.9366455078125 1.125 Q 5.857177734375 1.157958984375 5.766357421875 1.157958984375 Q 5.67626953125 1.157958984375 5.597900390625 1.1253662109375 Q 5.51953125 1.0927734375 5.4613037109375 1.0308837890625 Q 5.403076171875 0.968994140625 5.369384765625 0.88037109375 Q 5.335693359375 0.791748046875 5.335693359375 0.6796875 L 5.335693359375 0.234375 L 5.2353515625 0.234375 L 5.2353515625 0.032958984375 M 6.957275390625 0.345703125 Q 6.95361328125 0.320068359375 6.9393310546875 0.29736328125 Q 6.925048828125 0.274658203125 6.9027099609375 0.2581787109375 Q 6.88037109375 0.24169921875 6.8521728515625 0.232177734375 Q 6.823974609375 0.22265625 6.793212890625 0.22265625 Q 6.765380859375 0.22265625 6.7412109375 0.228515625 Q 6.717041015625 0.234375 6.6990966796875 0.2464599609375 Q 6.68115234375 0.258544921875 6.6705322265625 0.277587890625 Q 6.659912109375 0.296630859375 6.659912109375 0.322998046875 Q 6.659912109375 0.35595703125 6.6741943359375 0.3753662109375 Q 6.6884765625 0.394775390625 6.7108154296875 0.4072265625 Q 6.733154296875 0.419677734375 6.76025390625 0.427001953125 Q 6.787353515625 0.434326171875 6.81298828125 0.443115234375 L 7.014404296875 0.510498046875 Q 7.05615234375 0.525146484375 7.0927734375 0.55078125 Q 7.12939453125 0.576416015625 7.1561279296875 0.613037109375 Q 7.182861328125 0.649658203125 7.1982421875 0.697265625 Q 7.213623046875 0.744873046875 7.213623046875 0.80419921875 Q 7.213623046875 0.884765625 7.1839599609375 0.951416015625 Q 7.154296875 1.01806640625 7.100830078125 1.065673828125 Q 7.04736328125 1.11328125 6.97265625 1.1396484375 Q 6.89794921875 1.166015625 6.80712890625 1.166015625 Q 6.743408203125 1.166015625 6.6866455078125 1.1517333984375 Q 6.6298828125 1.137451171875 6.5830078125 1.1103515625 Q 6.5361328125 1.083251953125 6.5009765625 1.0455322265625 Q 6.4658203125 1.0078125 6.446044921875 0.960205078125 L 6.37060546875 0.960205078125 L 6.37060546875 0.73974609375 L 6.6357421875 0.73974609375 L 6.6357421875 0.78515625 Q 6.6357421875 0.818115234375 6.6463623046875 0.845947265625 Q 6.656982421875 0.873779296875 6.67822265625 0.894287109375 Q 6.699462890625 0.914794921875 6.731689453125 0.9261474609375 Q 6.763916015625 0.9375 6.80712890625 0.9375 Q 6.873046875 0.9375 6.907470703125 0.9071044921875 Q 6.94189453125 0.876708984375 6.94189453125 0.822509765625 Q 6.94189453125 0.794677734375 6.9298095703125 0.7760009765625 Q 6.917724609375 0.75732421875 6.898681640625 0.7445068359375 Q 6.879638671875 0.731689453125 6.856201171875 0.722900390625 Q 6.832763671875 0.714111328125 6.81005859375 0.706787109375 L 6.642333984375 0.652587890625 Q 6.5947265625 0.637939453125 6.5504150390625 0.611572265625 Q 6.506103515625 0.585205078125 6.4720458984375 0.545654296875 Q 6.43798828125 0.506103515625 6.4178466796875 0.4530029296875 Q 6.397705078125 0.39990234375 6.397705078125 0.331787109375 Q 6.397705078125 0.252685546875 6.427001953125 0.1907958984375 Q 6.456298828125 0.12890625 6.509033203125 0.08642578125 Q 6.561767578125 0.0439453125 6.63427734375 0.02197265625 Q 6.706787109375 0 6.793212890625 0 Q 6.861328125 0 6.919189453125 0.0157470703125 Q 6.97705078125 0.031494140625 7.0228271484375 0.057861328125 Q 7.068603515625 0.084228515625 7.1004638671875 0.1182861328125 Q 7.13232421875 0.15234375 7.149169921875 0.18896484375 L 7.222412109375 0.18896484375 L 7.222412109375 0.41015625 L 6.957275390625 0.41015625 L 6.957275390625 0.345703125" fill="#202020" fill-rule="nonzero"></path></g><g></g></g><defs><clipPath id="SvgjsClipPath1001"><path d=" M 0 -5.378250498517476 h 5.128250498517476 v 5.128250498517476 h -5.128250498517476 Z"></path></clipPath><clipPath id="SvgjsClipPath100059a29ebd-c92f-4298-9d9e-b8c2217132f0"><path d=" M 0 -5.378250498517476 L 5.128250498517476 -5.378250498517476 L 5.128250498517476 -0.25000000000000044 L 0 -0.25000000000000044 Z"></path></clipPath><linearGradient id="gradient-9d0fc320-bcbe-4781-8900-263a5e58def8_0" x1="0" x2="1" y1="0" y2="1"><stop stop-color="#118bd1" offset="0"></stop><stop stop-color="#1f272b" offset="1"></stop></linearGradient><linearGradient id="gradient-9d0fc320-bcbe-4781-8900-263a5e58def8_1" x1="0" x2="1" y1="0" y2="1"><stop stop-color="#1286c9" offset="0"></stop><stop stop-color="#1e2c33" offset="1"></stop></linearGradient><linearGradient id="gradient-9d0fc320-bcbe-4781-8900-263a5e58def8_2" x1="0" x2="1" y1="0" y2="1"><stop stop-color="#1381c1" offset="0"></stop><stop stop-color="#1d313c" offset="1"></stop></linearGradient><linearGradient id="gradient-9d0fc320-bcbe-4781-8900-263a5e58def8_3" x1="0" x2="1" y1="0" y2="1"><stop stop-color="#1192dc" offset="0"></stop><stop stop-color="#202020" offset="1"></stop></linearGradient><linearGradient id="gradient-4a37ab86-a355-4b62-95a7-b472873d0770" x1="0" x2="1" y1="0" y2="1"><stop stop-color="#1192dc" offset="0"></stop><stop stop-color="#202020" offset="1"></stop></linearGradient></defs></svg>